[Header]
FileType HTR
DataType HTRS
FileVersion 1
NumSegments 64
NumFrames 4
DataFrameRate 24
EulerRotationOrder ZYX
CalibrationUnits mm
RotationUnits Degrees
GlobalAxisofGravity Y
BoneLengthAxis Y
ScaleFactor 1.0
[SegmentNames&Hierarchy]
Hips	GLOBAL
Spine	Hips
Spine1	Spine
Spine2	Spine1
Neck	Spine2
Head	Neck
LeftEye	Head
RightEye	Head
LeftShoulder	Spine2
LeftArm	LeftShoulder
LeftForeArm	LeftArm
LeftHand	LeftForeArm
LeftHandThumb1	LeftHand
LeftHandThumb2	LeftHandThumb1
LeftHandThumb3	LeftHandThumb2
LeftHandThumb4	LeftHandThumb3
LeftHandIndex1	LeftHand
LeftHandIndex2	LeftHandIndex1
LeftHandIndex3	LeftHandIndex2
LeftHandIndex4	LeftHandIndex3
LeftHandMiddle1	LeftHand
LeftHandMiddle2	LeftHandMiddle1
LeftHandMiddle3	LeftHandMiddle2
LeftHandMiddle4	LeftHandMiddle3
LeftHandRing1	LeftHand
LeftHandRing2	LeftHandRing1
LeftHandRing3	LeftHandRing2
LeftHandRing4	LeftHandRing3
LeftHandPinky1	LeftHand
LeftHandPinky2	LeftHandPinky1
LeftHandPinky3	LeftHandPinky2
LeftHandPinky4	LeftHandPinky3
RightShoulder	Spine2
RightArm	RightShoulder
RightForeArm	RightArm
RightHand	RightForeArm
RightHandPinky1	RightHand
RightHandPinky2	RightHandPinky1
RightHandPinky3	RightHandPinky2
RightHandPinky4	RightHandPinky3
RightHandRing1	RightHand
RightHandRing2	RightHandRing1
RightHandRing3	RightHandRing2
RightHandRing4	RightHandRing3
RightHandMiddle1	RightHand
RightHandMiddle2	RightHandMiddle1
RightHandMiddle3	RightHandMiddle2
RightHandMiddle4	RightHandMiddle3
RightHandIndex1	RightHand
RightHandIndex2	RightHandIndex1
RightHandIndex3	RightHandIndex2
RightHandIndex4	RightHandIndex3
RightHandThumb1	RightHand
RightHandThumb2	RightHandThumb1
RightHandThumb3	RightHandThumb2
RightHandThumb4	RightHandThumb3
LeftUpLeg	Hips
LeftLeg	LeftUpLeg
LeftFoot	LeftLeg
LeftToeBase	LeftFoot
RightUpLeg	Hips
RightLeg	RightUpLeg
RightFoot	RightLeg
RightToeBase	RightFoot
[BasePosition]
Hips	0	0	0	0	0	0	1
Spine	0	0	0	0	0	0	1
Spine1	0	0	0	0	0	0	1
Spine2	0	0	0	0	0	0	1
Neck	0	0	0	0	0	0	1
Head	0	0	0	0	0	0	1
LeftEye	0	0	0	0	0	0	1
RightEye	0	0	0	0	0	0	1
LeftShoulder	0	0	0	0	0	0	1
LeftArm	0	0	0	0	0	0	1
LeftForeArm	0	0	0	0	0	0	1
LeftHand	0	0	0	0	0	0	1
LeftHandThumb1	0	0	0	0	0	0	1
LeftHandThumb2	0	0	0	0	0	0	1
LeftHandThumb3	0	0	0	0	0	0	1
LeftHandThumb4	0	0	0	0	0	0	1
LeftHandIndex1	0	0	0	0	0	0	1
LeftHandIndex2	0	0	0	0	0	0	1
LeftHandIndex3	0	0	0	0	0	0	1
LeftHandIndex4	0	0	0	0	0	0	1
LeftHandMiddle1	0	0	0	0	0	0	1
LeftHandMiddle2	0	0	0	0	0	0	1
LeftHandMiddle3	0	0	0	0	0	0	1
LeftHandMiddle4	0	0	0	0	0	0	1
LeftHandRing1	0	0	0	0	0	0	1
LeftHandRing2	0	0	0	0	0	0	1
LeftHandRing3	0	0	0	0	0	0	1
LeftHandRing4	0	0	0	0	0	0	1
LeftHandPinky1	0	0	0	0	0	0	1
LeftHandPinky2	0	0	0	0	0	0	1
LeftHandPinky3	0	0	0	0	0	0	1
LeftHandPinky4	0	0	0	0	0	0	1
RightShoulder	0	0	0	0	0	0	1
RightArm	0	0	0	0	0	0	1
RightForeArm	0	0	0	0	0	0	1
RightHand	0	0	0	0	0	0	1
RightHandPinky1	0	0	0	0	0	0	1
RightHandPinky2	0	0	0	0	0	0	1
RightHandPinky3	0	0	0	0	0	0	1
RightHandPinky4	0	0	0	0	0	0	1
RightHandRing1	0	0	0	0	0	0	1
RightHandRing2	0	0	0	0	0	0	1
RightHandRing3	0	0	0	0	0	0	1
RightHandRing4	0	0	0	0	0	0	1
RightHandMiddle1	0	0	0	0	0	0	1
RightHandMiddle2	0	0	0	0	0	0	1
RightHandMiddle3	0	0	0	0	0	0	1
RightHandMiddle4	0	0	0	0	0	0	1
RightHandIndex1	0	0	0	0	0	0	1
RightHandIndex2	0	0	0	0	0	0	1
RightHandIndex3	0	0	0	0	0	0	1
RightHandIndex4	0	0	0	0	0	0	1
RightHandThumb1	0	0	0	0	0	0	1
RightHandThumb2	0	0	0	0	0	0	1
RightHandThumb3	0	0	0	0	0	0	1
RightHandThumb4	0	0	0	0	0	0	1
LeftUpLeg	0	0	0	0	0	0	1
LeftLeg	0	0	0	0	0	0	1
LeftFoot	0	0	0	0	0	0	1
LeftToeBase	0	0	0	0	0	0	1
RightUpLeg	0	0	0	0	0	0	1
RightLeg	0	0	0	0	0	0	1
RightFoot	0	0	0	0	0	0	1
RightToeBase	0	0	0	0	0	0	1
[Hips]
168	52.46287537	941.0450439	130.5210114	4.206527233	-8.75861454	-1.328937054	1.0
169	32.34347153	974.7290649	136.7333069	3.111385345	-6.181213379	-3.011189938	1.0
170	5.76567173	1016.865845	146.6023865	2.043941498	-2.946891069	-5.000702381	1.0
171	-25.98085785	1040.39209	160.6919708	1.460875511	-0.4559429586	-5.359086514	1.0
[Spine]
168	0	101.8159943	1.315000057	8.13940239	-3.416947603	1.380489588	1.0
169	0	101.8159943	1.315000057	7.444067001	-3.761787653	3.031214476	1.0
170	0	101.8159943	1.315000057	6.136168003	-4.527650356	4.266463757	1.0
171	0	101.8159943	1.315000057	4.19149828	-4.770474911	2.472722292	1.0
[Spine1]
168	0	100.8349991	-10.00800037	4.391089439	-0.4867931902	0.7135956287	1.0
169	0	100.8349991	-10.00800037	4.630451202	-0.5263929963	1.060642958	1.0
170	0	100.8349991	-10.00800037	4.313512325	-0.6311254501	1.338615179	1.0
171	0	100.8349991	-10.00800037	3.22155261	-0.6711905599	1.148502827	1.0
[Spine2]
168	0	91	-13.73399925	4.380994797	-0.4336573482	0.6901315451	1.0
169	0	91	-13.73399925	4.623660564	-0.4538984597	1.029188752	1.0
170	0	91	-13.73399925	4.309489727	-0.5606092215	1.301619291	1.0
171	0	91	-13.73399925	3.215509892	-0.6268333197	1.118279099	1.0
[Neck]
168	0	166.7169952	-25.16200066	-5.854768276	-3.543212175	-4.066971779	1.0
169	0	166.7169952	-25.16200066	-6.468806267	-3.919673443	-4.934711933	1.0
170	0	166.7169952	-25.16200066	-5.604240417	-4.23765564	-4.217178345	1.0
171	0	166.7169952	-25.16200066	-3.125687599	-4.767425537	-0.5567125082	1.0
[Head]
168	0	96.17900085	16.84999847	-17.41988945	-20.35954094	9.841292381	1.0
169	0	96.17900085	16.84999847	-15.1863699	-22.64366913	10.4031353	1.0
170	0	96.17900085	16.84999847	-10.14544201	-24.04959297	9.106127739	1.0
171	0	96.17900085	16.84999847	-3.385754585	-24.07234192	6.757965088	1.0
[LeftEye]
168	30.6760006	64.09500122	92.83599854	0	0	0	1.0
169	30.6760006	64.09500122	92.83599854	0	0	0	1.0
170	30.6760006	64.09500122	92.83599854	0	0	0	1.0
171	30.6760006	64.09500122	92.83599854	0	0	0	1.0
[RightEye]
168	-30.6760006	64.09500122	92.83499908	0	0	0	1.0
169	-30.6760006	64.09500122	92.83499908	0	0	0	1.0
170	-30.6760006	64.09500122	92.83499908	0	0	0	1.0
171	-30.6760006	64.09500122	92.83499908	0	0	0	1.0
[LeftShoulder]
168	45.70400238	109.4599991	-26.28000069	2.93473506	-20.94259834	0.7390423417	1.0
169	45.70400238	109.4599991	-26.28000069	2.899831772	-21.74264717	0.6603953242	1.0
170	45.70400238	109.4599991	-26.28000069	2.893757343	-22.46869087	0.4657092392	1.0
171	45.70400238	109.4599991	-26.28000069	3.116023064	-23.49505043	-0.9481976032	1.0
[LeftArm]
168	105.923996	-5.24600029	-22.32099915	-24.92828178	-57.59407043	5.394282818	1.0
169	105.923996	-5.24600029	-22.32099915	-18.45293236	-58.60030365	1.411738515	1.0
170	105.923996	-5.24600029	-22.32099915	-8.321222305	-59.19007111	-4.990089893	1.0
171	105.923996	-5.24600029	-22.32099915	0.8440849185	-59.04321289	-6.37053299	1.0
[LeftForeArm]
168	278.414978	-0.0009999999311	0	3.051763269e-05	-105.1666718	-0.0002441407123	1.0
169	278.414978	-0.0009999999311	0	0	-105.1812668	-0.0001983642578	1.0
170	278.414978	-0.0009999999311	0	1.525876178e-05	-101.8042297	-0.0002288818359	1.0
171	278.414978	-0.0009999999311	0	-1.525876178e-05	-96.26042938	-0.0001983643888	1.0
[LeftHand]
168	283.2879944	0	0	19.75850296	-15.36502361	-17.07922173	1.0
169	283.2879944	0	0	22.37383842	-15.97013569	-16.71486282	1.0
170	283.2879944	0	0	22.70014381	-15.36738205	-16.10272217	1.0
171	283.2879944	0	0	18.26701546	-14.92294598	-14.27797222	1.0
[LeftHandThumb1]
168	24.6609993	-15.75	26.8239994	-1.441468477	-8.319277763	8.653969765	1.0
169	24.6609993	-15.75	26.8239994	-1.441475272	-8.319322586	8.653987885	1.0
170	24.6609993	-15.75	26.8239994	-1.441449761	-8.319155693	8.653916359	1.0
171	24.6609993	-15.75	26.8239994	-1.441437602	-8.319088936	8.653892517	1.0
[LeftHandThumb2]
168	32.29800034	-18.64699936	18.64699936	-0.9987824559	48.03626251	-30.10204315	1.0
169	32.29800034	-18.64699936	18.64699936	-0.999103725	48.03646851	-30.10244751	1.0
170	32.29800034	-18.64699936	18.64699936	-0.9976497293	48.03557205	-30.10062408	1.0
171	32.29800034	-18.64699936	18.64699936	-0.9971011877	48.03522873	-30.09994316	1.0
[LeftHandThumb3]
168	26.52600098	-15.31499958	15.31499958	7.522325993	50.02425003	24.38767815	1.0
169	26.52600098	-15.31499958	15.31499958	7.52257967	50.02451706	24.38786125	1.0
170	26.52600098	-15.31499958	15.31499958	7.521504879	50.02317047	24.38703918	1.0
171	26.52600098	-15.31499958	15.31499958	7.521094322	50.02266312	24.38673782	1.0
[LeftHandThumb4]
168	19.54599953	-11.28499985	11.28499985	0	0	0	1.0
169	19.54599953	-11.28499985	11.28499985	0	0	0	1.0
170	19.54599953	-11.28499985	11.28499985	0	0	0	1.0
171	19.54599953	-11.28499985	11.28499985	0	0	0	1.0
[LeftHandIndex1]
168	91.09299469	-5.170999527	22.60099792	-1.706955791	9.272199631	-79.12559509	1.0
169	91.09299469	-5.170999527	22.60099792	-1.706983328	9.272244453	-79.12612152	1.0
170	91.09299469	-5.170999527	22.60099792	-1.706810594	9.272068977	-79.12354279	1.0
171	91.09299469	-5.170999527	22.60099792	-1.706751704	9.27203083	-79.12267303	1.0
[LeftHandIndex2]
168	36.76399994	0	0	-5.08425808	5.778057575	-82.6798172	1.0
169	36.76399994	0	0	-5.084294319	5.778055668	-82.68015289	1.0
170	36.76399994	0	0	-5.084145546	5.778035164	-82.67869568	1.0
171	36.76399994	0	0	-5.084086895	5.778035164	-82.67814636	1.0
[LeftHandIndex3]
168	28.83100128	0	0	-6.44969368	5.791759014	-96.16468811	1.0
169	28.83100128	0	0	-6.449733257	5.79175663	-96.16503143	1.0
170	28.83100128	0	0	-6.449585915	5.791771412	-96.16339874	1.0
171	28.83100128	0	0	-6.449518204	5.791781902	-96.1628418	1.0
[LeftHandIndex4]
168	23.92700005	0	0	0	0	0	1.0
169	23.92700005	0	0	0	0	0	1.0
170	23.92700005	0	0	0	0	0	1.0
171	23.92700005	0	0	0	0	0	1.0
[LeftHandMiddle1]
168	95.33399963	0	0	-6.494782925	5.273257732	-74.30412292	1.0
169	95.33399963	0	0	-6.494815826	5.273259163	-74.30438995	1.0
170	95.33399963	0	0	-6.494658947	5.273264408	-74.30303955	1.0
171	95.33399963	0	0	-6.494604111	5.273271084	-74.30252838	1.0
[LeftHandMiddle2]
168	36.98199844	0	0	-7.583521843	5.554377079	-107.5968018	1.0
169	36.98199844	0	0	-7.583558083	5.55437088	-107.5972214	1.0
170	36.98199844	0	0	-7.583384991	5.554429531	-107.5953674	1.0
171	36.98199844	0	0	-7.583315372	5.55444479	-107.5947113	1.0
[LeftHandMiddle3]
168	29.50900078	0	0	-4.044111252	5.547134399	-72.16738892	1.0
169	29.50900078	0	0	-4.044138908	5.547147751	-72.16773224	1.0
170	29.50900078	0	0	-4.043982983	5.547100544	-72.16616821	1.0
171	29.50900078	0	0	-4.043936253	5.547079563	-72.16560364	1.0
[LeftHandMiddle4]
168	28.3390007	0	0	0	0	0	1.0
169	28.3390007	0	0	0	0	0	1.0
170	28.3390007	0	0	0	0	0	1.0
171	28.3390007	0	0	0	0	0	1.0
[LeftHandRing1]
168	91.04499817	-0.4390000105	-18.65100098	-7.093599796	2.507954359	-79.76675415	1.0
169	91.04499817	-0.4390000105	-18.65100098	-7.093623638	2.50793004	-79.76694489	1.0
170	91.04499817	-0.4390000105	-18.65100098	-7.0935359	2.507990122	-79.76618958	1.0
171	91.04499817	-0.4390000105	-18.65100098	-7.09350729	2.50801301	-79.76590729	1.0
[LeftHandRing2]
168	31.54000092	0	0	-6.249176502	5.80981493	-94.18086243	1.0
169	31.54000092	0	0	-6.249214649	5.809812546	-94.18125916	1.0
170	31.54000092	0	0	-6.249041557	5.809829235	-94.17955017	1.0
171	31.54000092	0	0	-6.248983383	5.809824944	-94.17894745	1.0
[LeftHandRing3]
168	29.37700081	0	0	-2.898638725	5.038882256	-59.79821396	1.0
169	29.37700081	0	0	-2.898658752	5.038901329	-59.7984848	1.0
170	29.37700081	0	0	-2.898549795	5.038825989	-59.79725266	1.0
171	29.37700081	0	0	-2.898513794	5.038811207	-59.79680634	1.0
[LeftHandRing4]
168	26.47500038	0	0	0	0	0	1.0
169	26.47500038	0	0	0	0	0	1.0
170	26.47500038	0	0	0	0	0	1.0
171	26.47500038	0	0	0	0	0	1.0
[LeftHandPinky1]
168	80.77799988	-4.887000084	-38.06099701	-15.74284172	5.236323357	-84.96316528	1.0
169	80.77799988	-4.887000084	-38.06099701	-15.74288654	5.236316681	-84.96334839	1.0
170	80.77799988	-4.887000084	-38.06099701	-15.74267292	5.236354828	-84.96250916	1.0
171	80.77799988	-4.887000084	-38.06099701	-15.74259377	5.236376286	-84.96218872	1.0
[LeftHandPinky2]
168	36	0	0	-2.465529919	4.761468887	-54.73121262	1.0
169	36	0	0	-2.465531111	4.761475086	-54.73126984	1.0
170	36	0	0	-2.465513945	4.761471748	-54.73104858	1.0
171	36	0	0	-2.465507984	4.761459827	-54.73096085	1.0
[LeftHandPinky3]
168	21.14200211	0	0	-4.929663658	5.756206989	-81.14147186	1.0
169	21.14200211	0	0	-4.929690838	5.756197929	-81.14167023	1.0
170	21.14200211	0	0	-4.929585457	5.756178856	-81.14064789	1.0
171	21.14200211	0	0	-4.929547787	5.756181717	-81.14031219	1.0
[LeftHandPinky4]
168	19.75699997	0	0	0	0	0	1.0
169	19.75699997	0	0	0	0	0	1.0
170	19.75699997	0	0	0	0	0	1.0
171	19.75699997	0	0	0	0	0	1.0
[RightShoulder]
168	-45.70000076	109.4620056	-26.28000069	-24.5720253	15.33417225	-17.4063549	1.0
169	-45.70000076	109.4620056	-26.28000069	-23.39079666	14.29347134	-16.62527466	1.0
170	-45.70000076	109.4620056	-26.28000069	-21.61244202	11.85455418	-14.86176968	1.0
171	-45.70000076	109.4620056	-26.28000069	-19.40892982	8.352179527	-13.01002312	1.0
[RightArm]
168	-105.9280014	-5.248000145	-22.32099915	-81.22948456	-13.08846855	9.297613144	1.0
169	-105.9280014	-5.248000145	-22.32099915	-84.48016357	-9.878072739	9.627362251	1.0
170	-105.9280014	-5.248000145	-22.32099915	-72.75683594	-3.304653883	8.560997009	1.0
171	-105.9280014	-5.248000145	-22.32099915	-47.37055206	2.263155699	1.028462052	1.0
[RightForeArm]
168	-278.414978	0	0	5.722867666e-11	134.496994	1.525881635e-05	1.0
169	-278.414978	0	0	-3.051757813e-05	120.4887466	-1.525878906e-05	1.0
170	-278.414978	0	0	5.141883794e-11	95.93675995	0.0001525879343	1.0
171	-278.414978	0	0	-3.0315598e-06	60.40671921	2.083542313e-06	1.0
[RightHand]
168	-283.2879944	0	0.0009999999311	-22.89049911	-6.410131931	-42.31781006	1.0
169	-283.2879944	0	0.0009999999311	-18.85927773	-3.376820803	-57.10676956	1.0
170	-283.2879944	0	0.0009999999311	-17.84203529	-1.311995387	-52.19449615	1.0
171	-283.2879944	0	0.0009999999311	-32.10070419	-8.864556313	-35.08190155	1.0
[RightHandPinky1]
168	-80.76699829	-4.885000229	-38.06000137	-15.18224049	-1.629498601	97.5863266	1.0
169	-80.76699829	-4.885000229	-38.06000137	-15.18225002	-1.629487395	97.58634186	1.0
170	-80.76699829	-4.885000229	-38.06000137	-15.18224621	-1.629502535	97.58631897	1.0
171	-80.76699829	-4.885000229	-38.06000137	-15.18224335	-1.629513144	97.58628082	1.0
[RightHandPinky2]
168	-36	0	0.0009999999311	-1.749816537	-3.626896381	51.51877594	1.0
169	-36	0	0.0009999999311	-1.749813437	-3.626899719	51.51877975	1.0
170	-36	0	0.0009999999311	-1.749811411	-3.626886606	51.51878738	1.0
171	-36	0	0.0009999999311	-1.749818921	-3.626890898	51.51877975	1.0
[RightHandPinky3]
168	-21.14200211	0	0	-1.867244005	-3.717078447	53.33224487	1.0
169	-21.14200211	0	0	-1.867235303	-3.717086077	53.33223343	1.0
170	-21.14200211	0	0	-1.867233157	-3.717089415	53.33228683	1.0
171	-21.14200211	0	0	-1.867242932	-3.717097759	53.33235931	1.0
[RightHandPinky4]
168	-19.75699997	0	0	0	0	0	1.0
169	-19.75699997	0	0	0	0	0	1.0
170	-19.75699997	0	0	0	0	0	1.0
171	-19.75699997	0	0	0	0	0	1.0
[RightHandRing1]
168	-91.03599548	-0.4390000105	-18.65100098	-7.065040112	-0.7974103689	91.91008759	1.0
169	-91.03599548	-0.4390000105	-18.65100098	-7.06505537	-0.7973936796	91.91008759	1.0
170	-91.03599548	-0.4390000105	-18.65100098	-7.065042973	-0.7974058986	91.91005707	1.0
171	-91.03599548	-0.4390000105	-18.65100098	-7.065037727	-0.7974187136	91.91004944	1.0
[RightHandRing2]
168	-31.54000092	0	0	-4.32775116	-4.620634556	86.24689484	1.0
169	-31.54000092	0	0	-4.327754498	-4.620633125	86.24686432	1.0
170	-31.54000092	0	0	-4.327732086	-4.62062645	86.24688721	1.0
171	-31.54000092	0	0	-4.32774353	-4.620628834	86.2469101	1.0
[RightHandRing3]
168	-29.37700081	0	0	-1.156954408	-3.06394434	41.36634445	1.0
169	-29.37700081	0	0	-1.156970143	-3.063941956	41.36633301	1.0
170	-29.37700081	0	0	-1.1569736	-3.063946247	41.3663559	1.0
171	-29.37700081	0	0	-1.156977415	-3.063949585	41.36642075	1.0
[RightHandRing4]
168	-26.47500038	0	0	0	0	0	1.0
169	-26.47500038	0	0	0	0	0	1.0
170	-26.47500038	0	0	0	0	0	1.0
171	-26.47500038	0	0	0	0	0	1.0
[RightHandMiddle1]
168	-95.32500458	0	0	-5.490193844	-4.098505974	73.57289886	1.0
169	-95.32500458	0	0	-5.490191936	-4.098499775	73.57289886	1.0
170	-95.32500458	0	0	-5.490194798	-4.098506451	73.57288361	1.0
171	-95.32500458	0	0	-5.490194798	-4.098511219	73.57290649	1.0
[RightHandMiddle2]
168	-36.98199844	0	0	-6.026583672	-4.415501118	107.5651245	1.0
169	-36.98199844	0	0	-6.026584148	-4.415498257	107.5651169	1.0
170	-36.98199844	0	0	-6.026576996	-4.41549778	107.5651169	1.0
171	-36.98199844	0	0	-6.026576996	-4.415499687	107.5651169	1.0
[RightHandMiddle3]
168	-29.50900078	0	0	-1.28746891	-3.207860231	43.75225067	1.0
169	-29.50900078	0	0	-1.287465096	-3.207857132	43.75222397	1.0
170	-29.50900078	0	0	-1.287462115	-3.207849026	43.75228882	1.0
171	-29.50900078	0	0	-1.287474155	-3.207856894	43.75237656	1.0
[RightHandMiddle4]
168	-28.3390007	0	0.0009999999311	0	0	0	1.0
169	-28.3390007	0	0.0009999999311	0	0	0	1.0
170	-28.3390007	0	0.0009999999311	0	0	0	1.0
171	-28.3390007	0	0.0009999999311	0	0	0	1.0
[RightHandIndex1]
168	-91.08300018	-5.167999744	22.60099792	2.643074989	-5.360714436	51.18568039	1.0
169	-91.08300018	-5.167999744	22.60099792	2.643053532	-5.360723972	51.18564606	1.0
170	-91.08300018	-5.167999744	22.60099792	2.643049955	-5.360741138	51.18571472	1.0
171	-91.08300018	-5.167999744	22.60099792	2.643051624	-5.360738277	51.18579102	1.0
[RightHandIndex2]
168	-36.76399994	0	0	-4.042259216	-4.593078613	82.69343567	1.0
169	-36.76399994	0	0	-4.042259693	-4.593095779	82.69343567	1.0
170	-36.76399994	0	0	-4.042254448	-4.593094826	82.6934433	1.0
171	-36.76399994	0	0	-4.042250156	-4.593084335	82.6934433	1.0
[RightHandIndex3]
168	-28.83100128	0	0	-5.126288891	-4.603962421	96.15283203	1.0
169	-28.83100128	0	0	-5.126285553	-4.603966713	96.15283203	1.0
170	-28.83100128	0	0	-5.126280785	-4.603979111	96.15283966	1.0
171	-28.83100128	0	0	-5.126293659	-4.603966236	96.15283966	1.0
[RightHandIndex4]
168	-23.92700005	0	0	0	0	0	1.0
169	-23.92700005	0	0	0	0	0	1.0
170	-23.92700005	0	0	0	0	0	1.0
171	-23.92700005	0	0	0	0	0	1.0
[RightHandThumb1]
168	-24.64799881	-15.72700024	26.82600021	-2.388253927	10.16858959	-8.287021637	1.0
169	-24.64799881	-15.72700024	26.82600021	-2.388246298	10.16857815	-8.287043571	1.0
170	-24.64799881	-15.72700024	26.82600021	-2.388239145	10.16857815	-8.287039757	1.0
171	-24.64799881	-15.72700024	26.82600021	-2.388250828	10.16858196	-8.287031174	1.0
[RightHandThumb2]
168	-32.29800034	-18.64699936	18.64699936	7.070513725	-37.46695328	0.601349175	1.0
169	-32.29800034	-18.64699936	18.64699936	7.070510864	-37.46693802	0.6013376117	1.0
170	-32.29800034	-18.64699936	18.64699936	7.07048893	-37.46695709	0.6014259458	1.0
171	-32.29800034	-18.64699936	18.64699936	7.07050848	-37.46699905	0.6014704108	1.0
[RightHandThumb3]
168	-26.52600098	-15.31399918	15.31399918	3.291632414	-34.41184998	-26.10049057	1.0
169	-26.52600098	-15.31399918	15.31399918	3.291615486	-34.41181946	-26.1004734	1.0
170	-26.52600098	-15.31399918	15.31399918	3.291642666	-34.41187668	-26.10049248	1.0
171	-26.52600098	-15.31399918	15.31399918	3.291664362	-34.41193008	-26.10048866	1.0
[RightHandThumb4]
168	-19.54599953	-11.28499985	11.28499985	0	0	0	1.0
169	-19.54599953	-11.28499985	11.28499985	0	0	0	1.0
170	-19.54599953	-11.28499985	11.28499985	0	0	0	1.0
171	-19.54599953	-11.28499985	11.28499985	0	0	0	1.0
[LeftUpLeg]
168	82.07800293	-67.51699829	-15.99599934	-26.29957771	19.88133621	15.62184048	1.0
169	82.07800293	-67.51699829	-15.99599934	-20.83595467	16.88998604	18.31836319	1.0
170	82.07800293	-67.51699829	-15.99599934	-14.10318279	14.3364296	20.17751694	1.0
171	82.07800293	-67.51699829	-15.99599934	-15.68827534	14.8706255	18.19366074	1.0
[LeftLeg]
168	0	-443.7049866	2.845999956	44.5368309	3.016192913	3.037722349	1.0
169	0	-443.7049866	2.845999956	34.75762939	5.547477722	3.953921795	1.0
170	0	-443.7049866	2.845999956	21.28991699	8.789265633	3.647163153	1.0
171	0	-443.7049866	2.845999956	26.38130188	5.319047451	2.781592131	1.0
[LeftFoot]
168	0	-444.2789917	-29.8219986	-15.25584221	-1.614186645	-12.85652256	1.0
169	0	-444.2789917	-29.8219986	-7.493309021	0.1714558899	-10.8254509	1.0
170	0	-444.2789917	-29.8219986	4.80545187	1.502293229	-6.552299023	1.0
171	0	-444.2789917	-29.8219986	5.115442753	1.617493749	-6.93888855	1.0
[LeftToeBase]
168	0	-87.28699493	107.1060028	0.1600341499	0.003205506364	-0.4425703585	1.0
169	0	-87.28699493	107.1060028	-3.039584637	-2.832475047e-06	-2.306421948e-06	1.0
170	0	-87.28699493	107.1060028	-5.730550289	-0.138384074	-1.662110567	1.0
171	0	-87.28699493	107.1060028	-1.3713938	-0.01019105595	-0.5557668209	1.0
[RightUpLeg]
168	-82.07800293	-67.51699829	-15.99599934	-65.8950119	-8.68176651	-6.174837112	1.0
169	-82.07800293	-67.51699829	-15.99599934	-62.36238861	-15.51872158	-6.323347092	1.0
170	-82.07800293	-67.51699829	-15.99599934	-51.40460205	-18.84229851	-6.99822998	1.0
171	-82.07800293	-67.51699829	-15.99599934	-36.66634369	-17.11008644	-8.403452873	1.0
[RightLeg]
168	0	-443.7049866	2.861999989	108.7875366	4.072986126	-7.660125256	1.0
169	0	-443.7049866	2.861999989	108.6292419	3.956595182	-6.358697414	1.0
170	0	-443.7049866	2.861999989	92.85362244	2.374174118	-8.182540894	1.0
171	0	-443.7049866	2.861999989	65.11077118	-0.9584441185	-7.123576164	1.0
[RightFoot]
168	0	-444.2770081	-29.83799934	-3.501877546	-16.05639458	3.608888865	1.0
169	0	-444.2770081	-29.83799934	-3.305618525	-21.97541809	0.05779195577	1.0
170	0	-444.2770081	-29.83799934	3.261658192	-24.7383213	-1.345257759	1.0
171	0	-444.2770081	-29.83799934	10.09197807	-26.6536274	3.956138372	1.0
[RightToeBase]
168	0	-87.28699493	107.1060028	1.641308904	6.049327567e-06	-4.629895102e-06	1.0
169	0	-87.28699493	107.1060028	1.297406673	-3.611117563e-06	3.00372767e-06	1.0
170	0	-87.28699493	107.1060028	1.18550241	-1.862260069e-05	-6.406971806e-07	1.0
171	0	-87.28699493	107.1060028	-0.3074853718	3.299318905e-06	4.445223112e-06	1.0
[EndOfFile]
